<svg width="827" height="559" viewBox="0 0 827 559" fill="none" xmlns="http://www.w3.org/2000/svg">
<path d="M579.983 487.42C499 580.5 352.77 574 282.301 487.42C190.003 344 354.5 142 431.642 0C505.034 130 660.966 394.341 579.983 487.42Z" fill="url(#paint0_linear_0_1)"/>
<path d="M383 466.646C384.696 467.188 384.696 467.188 386.426 467.74C398.285 471.875 409.048 478.683 419.785 485.092C441.935 498.278 464.484 510.812 490.798 510.887C492.834 510.896 494.87 510.927 496.906 510.959C535.689 511.275 575 489.848 586 480.998C515 566.5 349.5 603 275.5 476C311.506 459.278 345.077 453.675 383 466.646Z" fill="#11BAF9"/>
<path d="M431.5 0C446.5 26.5 469 65.5 490.914 101.5C484.974 101.5 479.034 101.5 472.914 101.5C479.771 114.706 479.771 114.706 487.039 127.688C502.705 154.859 516.637 185.098 509.572 217.145C508.529 220.88 507.009 224.253 505.227 227.688C504.868 228.382 504.509 229.076 504.139 229.791C497.931 241.4 487.111 248.428 474.664 252.5C463.881 254.96 451.11 254.957 440.914 250.5C440.302 250.237 439.691 249.973 439.061 249.702C427.94 244.858 417.687 239.138 407.668 232.277C401.075 227.802 394.45 224.174 387.102 221.062C386.325 220.732 385.549 220.403 384.75 220.062C354.756 207.848 313.997 220.832 292.5 245.5C328.4 169.392 373.781 98.8896 416.5 26.5C421.876 17.3873 427.5 8.5 431.5 0Z" fill="#11BAF9"/>
<path d="M128.914 229C144.094 229 159.274 229 174.914 229C174.872 277.217 174.28 325.453 174.587 373.671C174.713 395.71 165.559 413.912 151.828 430.523C69.5 518 -58.2812 393.491 31.5701 306.395C54.2937 285.301 103.38 278.466 127.914 303C128.244 278.58 128.574 254.16 128.914 229Z" fill="#1C3656"/>
<path d="M813.603 329.186C824.385 346.947 826.376 364.974 826.208 385.272C826.144 408.514 826.042 431.756 825.915 454.998C811.395 454.998 796.875 454.998 781.915 454.998C781.585 449.388 781.255 443.778 780.915 437.998C763.958 453.972 745.284 459.463 722.049 458.273C680.5 452 655.911 417.915 652.597 383.713C648.547 295.975 758.576 248.025 813.603 329.186Z" fill="#1C3656"/>
<path d="M534.133 294.318C544.897 301.669 547.999 313.904 550.914 325.998C553.322 336.346 553.322 336.346 556.414 346.498C562.058 362.554 565.481 380.564 570 396.998C570.5 397 571 397 571.914 396.998C580 366 588.12 334.043 597.302 303.567C598.356 300.042 599.19 296.616 599.914 292.998C615.094 292.998 630.274 292.998 645.914 292.998C632 344.998 616.364 389.931 601.293 437.482C597.959 445.983 591.86 452.159 583.852 456.436C576.439 459.362 568.069 459.311 560.527 456.928C551.975 453 546.201 447.705 542.613 438.951C532.974 412.02 524.5 374 517.914 344.998C516.924 344.998 515.934 344.998 514.914 344.998C507.046 373.93 498.237 402.594 490.246 431.491C487.159 442.317 483.345 448.878 473.992 455.322C466.836 459.275 457.845 459.233 449.914 457.998C437.47 453.958 429.972 443.513 427.227 431.248C415 390.5 400 339 386.914 292.998C401.764 292.998 416.614 292.998 431.914 292.998C441.791 327.568 451.003 362.178 459.914 396.998C460.574 396.998 461.234 396.998 461.914 396.998C468.5 369 475.054 343.363 482.633 316.998C485.659 306.868 489.83 298.451 499.07 292.643C510.709 286.628 523.011 287.7 534.133 294.318Z" fill="#1C3656"/>
<path d="M355.289 227.689C356.24 227.686 357.192 227.682 358.172 227.679C365.426 227.733 371.589 228.78 378.914 230.001C378.914 243.201 378.914 256.401 378.914 270.001C372.314 270.001 365.714 270.001 358.914 270.001C351.141 271.945 347.166 273.316 342.039 279.126C340.29 283.203 340.29 283.203 339.914 293.001C351.134 293.001 362.354 293.001 373.914 293.001C373.914 306.861 373.914 320.721 373.914 335.001C362.364 335.001 350.814 335.001 338.914 335.001C338.914 374.271 338.914 413.541 338.914 454.001C324.394 454.001 309.874 454.001 294.914 454.001C294.914 414.731 294.914 375.461 294.914 335.001C287.984 335.001 281.054 335.001 273.914 335.001C273.914 321.141 273.914 307.281 273.914 293.001C281.174 293.001 288.434 293.001 295.914 293.001C295.852 290.733 295.79 288.464 295.727 286.126C295.62 269.668 303.666 254.727 314.914 243.001C318.542 239.843 322.444 237.334 326.602 234.939C327.163 234.601 327.724 234.262 328.303 233.913C336.969 228.907 345.376 227.522 355.289 227.689Z" fill="#1D3757"/>
<path d="M200.914 293C215.764 293 230.614 293 245.914 293C245.914 346.46 245.914 399.92 245.914 455C231.064 455 216.214 455 200.914 455C200.914 401.54 200.914 348.08 200.914 293Z" fill="#1C3757"/>
<circle cx="87.5" cy="373.5" r="44.5" fill="#D9D9D9"/>
<circle cx="738.5" cy="372.5" r="44.5" fill="#D9D9D9"/>
<circle cx="224" cy="253" r="23" fill="#11BAF9"/>
<defs>
<linearGradient id="paint0_linear_0_1" x1="381" y1="334.5" x2="682.5" y2="-1.23452e-05" gradientUnits="userSpaceOnUse">
<stop stop-color="white"/>
<stop offset="0.95348" stop-color="#3CCAFF" stop-opacity="0"/>
</linearGradient>
</defs>
</svg>

